<?xml version="1.0" standalone="no"?>
<!DOCTYPE svg PUBLIC "-//W3C//DTD SVG 20010904//EN"
 "http://www.w3.org/TR/2001/REC-SVG-20010904/DTD/svg10.dtd">
<svg version="1.0" xmlns="http://www.w3.org/2000/svg"
 width="8000.000000pt" height="8000.000000pt" viewBox="0 0 8000.000000 8000.000000"
 preserveAspectRatio="xMidYMid meet">

<g transform="translate(0.000000,8000.000000) scale(0.100000,-0.100000)"
fill="#000000" stroke="none">
<path d="M23260 63524 c-1849 -53 -3482 -329 -5080 -857 -697 -231 -1569 -586
-1756 -715 -171 -118 -290 -289 -345 -497 -30 -114 -31 -307 -1 -427 55 -224
201 -425 388 -536 83 -49 95 -54 439 -178 1058 -379 2190 -893 3185 -1447
1459 -812 2753 -1745 3990 -2876 394 -361 932 -905 1330 -1346 1601 -1774
2872 -3866 3695 -6080 448 -1206 753 -2374 977 -3747 29 -181 55 -328 58 -328
3 0 59 116 125 258 1494 3215 3419 6298 5804 9292 954 1198 1871 2211 2869
3171 l172 166 -57 50 c-622 538 -1508 1220 -2273 1750 -853 590 -1915 1233
-2775 1678 -82 43 -213 110 -290 150 -285 148 -885 432 -1273 601 -2617 1144
-5285 1782 -7959 1904 -234 10 -1027 20 -1223 14z"/>
<path d="M55782 63520 c-3498 -112 -7070 -1140 -10382 -2988 -2977 -1661
-5611 -3867 -7881 -6602 -2198 -2646 -4139 -5597 -5613 -8530 -2596 -5166
-3821 -10322 -3551 -14945 199 -3396 1214 -6380 2970 -8730 200 -268 414 -533
520 -643 347 -363 801 -598 1315 -679 160 -25 501 -25 655 1 190 31 361 81
655 191 1735 651 3371 1421 4830 2273 2449 1432 4483 3153 6071 5137 1264
1580 2212 3279 2849 5110 425 1221 708 2519 919 4225 98 786 152 1349 286
2960 199 2385 292 3258 466 4355 338 2135 890 3904 1774 5690 1824 3681 4835
6724 8655 8746 265 140 887 445 1150 564 576 260 1102 473 1733 700 304 110
372 148 497 275 98 100 155 192 199 325 107 326 24 677 -215 906 -115 109
-156 133 -479 274 -1736 759 -3631 1214 -5625 1349 -539 37 -1294 52 -1798 36z"/>
<path d="M13495 59544 c-436 -43 -741 -144 -1060 -349 -192 -124 -346 -265
-684 -625 -1934 -2059 -3298 -4676 -3980 -7640 -577 -2508 -653 -5268 -220
-8050 334 -2149 997 -4375 1922 -6450 103 -232 120 -269 239 -525 427 -916
992 -1953 1564 -2872 809 -1297 1663 -2452 2783 -3763 147 -172 514 -593 531
-610 3 -3 59 -66 125 -140 836 -943 1946 -2073 2930 -2981 3412 -3149 7246
-5637 11068 -7184 2407 -974 4774 -1578 7032 -1795 116 -11 215 -20 220 -20 6
0 -48 27 -120 59 -209 94 -454 210 -535 254 -253 137 -482 330 -653 549 -224
288 -366 631 -413 1001 -34 267 -5 616 71 867 4 13 -22 10 -156 -17 -392 -78
-869 -85 -1262 -18 -767 132 -1494 537 -2001 1115 -121 137 -327 395 -493 615
-1487 1975 -2486 4344 -2962 7026 -501 2823 -407 5961 275 9211 270 1291 660
2694 1093 3941 l79 227 -34 368 c-218 2373 -473 3861 -905 5282 -606 1992
-1585 3881 -2877 5550 -1169 1509 -2580 2833 -4217 3957 -1924 1320 -4163
2321 -6505 2908 -162 40 -345 80 -406 89 -111 16 -375 27 -449 20z"/>
<path d="M66190 59540 c-153 -14 -267 -37 -575 -115 -4120 -1049 -7706 -3264
-10274 -6345 -1928 -2313 -3178 -4956 -3746 -7925 -233 -1216 -366 -2356 -580
-4965 -121 -1477 -190 -2193 -286 -2980 -251 -2068 -617 -3639 -1201 -5160
-1122 -2921 -3001 -5554 -5558 -7793 -2112 -1849 -4706 -3417 -7740 -4679
-353 -147 -392 -166 -480 -234 -366 -282 -435 -831 -152 -1205 95 -124 199
-200 419 -305 1573 -748 3301 -1186 5203 -1319 780 -54 1650 -54 2470 1 2709
180 5624 946 8545 2244 2921 1298 5831 3137 8545 5399 1964 1637 3813 3492
5510 5526 1532 1837 2739 3673 3739 5690 1564 3151 2473 6485 2661 9760 48
839 46 1797 -6 2615 -129 2058 -552 3987 -1271 5794 -728 1832 -1730 3450
-3007 4856 -213 234 -567 590 -659 663 -311 245 -678 404 -1067 461 -133 19
-367 27 -490 16z"/>
</g>
</svg>
