<?xml version="1.0" standalone="no"?>
<!DOCTYPE svg PUBLIC "-//W3C//DTD SVG 20010904//EN"
 "http://www.w3.org/TR/2001/REC-SVG-20010904/DTD/svg10.dtd">
<svg version="1.0" xmlns="http://www.w3.org/2000/svg"
 width="5311.000000pt" height="4448.000000pt" viewBox="0 0 5311.000000 4448.000000"
 preserveAspectRatio="xMidYMid meet">

<g transform="translate(0.000000,4448.000000) scale(0.100000,-0.100000)"
fill="#000000" stroke="none">
<path d="M36865 42764 c-916 -55 -1667 -305 -2334 -778 -1056 -749 -1743
-2029 -1900 -3541 -34 -320 -43 -824 -21 -1135 61 -876 277 -1744 634 -2548
31 -70 41 -104 33 -107 -7 -2 -86 -18 -177 -35 -173 -31 -636 -124 -800 -160
-52 -12 -158 -35 -235 -51 -77 -17 -302 -66 -500 -110 -560 -125 -626 -139
-635 -139 -4 0 -4 19 0 43 35 183 37 705 6 932 -103 728 -385 1316 -860 1791
-497 497 -1122 786 -1891 876 -162 18 -615 16 -890 -6 -301 -23 -1044 -33
-1330 -17 -676 37 -1223 131 -1748 301 -663 215 -1264 540 -1955 1057 -145
109 -469 361 -498 388 -6 5 -27 22 -46 37 -46 36 -148 121 -289 239 -547 458
-933 716 -1453 970 -582 284 -1103 435 -1761 511 -149 17 -712 17 -870 0 -686
-76 -1297 -309 -1800 -686 -140 -106 -267 -220 -416 -372 -309 -318 -581 -743
-758 -1186 -13 -32 -26 -58 -29 -58 -2 0 -39 33 -81 73 -195 186 -463 397
-696 549 -667 435 -1361 666 -2184 729 -203 15 -721 7 -896 -15 -856 -106
-1584 -429 -2215 -983 -680 -598 -1205 -1492 -1454 -2478 -117 -467 -157 -781
-276 -2185 -53 -618 -77 -870 -111 -1150 -125 -1031 -340 -1803 -710 -2542
-161 -321 -321 -589 -585 -978 -981 -1445 -1361 -3384 -974 -4975 160 -660
438 -1233 838 -1725 47 -58 177 -197 289 -309 111 -113 201 -206 200 -208 -2
-1 -85 -23 -184 -48 -1658 -416 -2906 -1604 -3318 -3160 -97 -365 -136 -680
-136 -1089 1 -449 51 -808 173 -1234 153 -536 381 -964 781 -1465 229 -287
394 -468 1026 -1122 636 -658 726 -754 1015 -1084 643 -735 1146 -1433 1641
-2276 507 -864 973 -1494 1485 -2006 809 -811 1663 -1259 2620 -1376 205 -25
705 -25 910 0 831 103 1595 383 2487 914 222 132 598 379 759 498 484 360 862
811 1129 1348 262 526 410 1105 456 1781 15 223 6 758 -16 976 -33 329 -79
628 -141 920 -33 156 -97 421 -109 451 -4 10 18 24 72 48 136 59 533 264 688
356 83 48 221 134 308 191 87 57 159 104 161 104 2 0 48 -55 103 -122 620
-763 1524 -1240 2653 -1402 321 -46 777 -70 1113 -58 110 4 200 5 202 2 5 -9
-100 -366 -159 -538 -207 -606 -430 -972 -1031 -1692 -131 -157 -282 -339
-335 -405 -597 -741 -854 -1335 -942 -2175 -19 -184 -16 -723 6 -925 73 -688
243 -1300 521 -1870 241 -493 510 -873 884 -1245 323 -322 652 -559 1052 -761
516 -258 1029 -401 1699 -471 197 -21 946 -17 1175 5 748 73 1431 238 2105
507 1536 613 2879 1716 3837 3150 389 582 696 1179 958 1860 63 165 222 630
231 674 2 12 8 32 13 46 18 47 149 549 158 605 2 17 13 64 23 105 10 41 21 93
26 115 4 22 8 45 10 50 1 6 5 26 8 45 14 76 38 206 42 225 6 24 12 65 19 120
3 22 8 47 10 55 2 8 7 38 9 65 3 28 12 93 20 145 41 261 64 498 86 865 6 99
12 186 13 194 1 9 54 24 162 46 1088 222 2282 888 3198 1784 81 79 149 142
150 140 2 -2 48 -62 102 -134 880 -1160 1952 -2149 3116 -2872 629 -392 1308
-712 1999 -943 317 -106 406 -132 700 -204 477 -116 889 -182 1450 -233 285
-26 1134 -26 1405 0 909 87 1649 286 2350 632 521 257 932 546 1329 935 476
467 827 991 1074 1605 334 832 441 1826 271 2522 -126 518 -398 977 -825 1393
-444 433 -1024 817 -2061 1365 -123 64 -223 118 -223 120 0 1 31 71 69 156
150 338 290 714 396 1065 361 1193 464 2343 325 3639 -223 2074 -1021 4203
-2179 5810 -84 117 -98 141 -83 147 9 3 105 23 212 43 365 70 824 193 1183
319 1655 580 2963 1651 3631 2974 226 449 358 868 422 1337 25 183 25 611 1
785 -49 346 -148 643 -331 996 -402 772 -1005 1332 -1857 1724 -569 262 -1127
431 -2394 725 -855 198 -1299 316 -1735 461 -811 270 -1411 606 -2160 1210
-253 204 -301 243 -349 285 -24 22 -100 88 -169 147 -69 59 -184 159 -256 222
-682 599 -1032 882 -1386 1122 -644 437 -1250 675 -1894 743 -141 15 -472 26
-581 19z m4365 -2944 c19 -10 82 -57 139 -105 486 -407 1201 -777 1864 -965
201 -57 379 -90 567 -105 136 -11 220 -37 240 -74 70 -131 -237 -322 -654
-406 -191 -39 -269 -46 -461 -46 -379 0 -706 78 -1034 246 -223 114 -402 246
-572 422 -173 180 -285 367 -336 563 -84 325 46 573 247 470z m-19181 -1232
c23 -13 101 -71 174 -129 603 -485 1156 -750 1887 -902 41 -9 128 -27 193 -41
126 -27 249 -76 273 -110 22 -32 17 -81 -12 -115 -60 -72 -304 -158 -529 -187
-27 -3 -59 -8 -70 -10 -116 -23 -539 -24 -650 0 -11 2 -40 7 -65 10 -279 38
-590 161 -820 324 -125 88 -299 263 -378 380 -77 112 -153 269 -184 377 -32
115 -33 291 0 352 38 73 104 91 181 51z m-15023 -4953 c248 -124 483 -592 553
-1107 59 -426 13 -977 -109 -1323 -138 -388 -407 -672 -745 -784 -339 -112
-688 -21 -751 197 -34 115 -9 190 135 406 334 506 491 1066 566 2031 28 370
40 431 95 518 54 86 158 111 256 62z m23942 -32 c106 -78 45 -268 -148 -464
-220 -223 -554 -394 -954 -489 -147 -34 -154 -36 -296 -56 -107 -15 -185 -19
-395 -19 -141 1 -269 6 -310 13 -38 7 -86 15 -105 18 -19 2 -82 16 -140 31
-367 89 -688 273 -816 465 -44 65 -48 78 -49 131 0 52 3 61 28 83 39 34 100
47 182 41 39 -4 80 -8 92 -11 12 -3 46 -7 75 -11 29 -3 67 -7 83 -9 268 -34
949 -40 1275 -11 458 41 851 124 1135 242 61 25 130 51 155 58 65 18 155 12
188 -12z m-10466 -4424 c-9 -27 -19 -49 -22 -49 -6 0 -40 97 -40 112 0 3 17 1
39 -4 l39 -10 -16 -49z m-8992 -3203 c222 -89 454 -369 598 -719 146 -355 215
-734 214 -1187 0 -424 -64 -741 -212 -1047 -102 -213 -252 -405 -409 -524
-139 -105 -341 -179 -453 -164 -107 13 -183 57 -221 128 -18 35 -22 57 -21
137 0 87 4 107 52 245 179 524 256 984 256 1535 0 402 -27 637 -117 1020 -35
149 -41 192 -41 290 -1 137 16 199 71 254 68 68 167 79 283 32z m25537 -998
c90 -45 234 -223 352 -436 159 -286 286 -666 326 -975 8 -65 15 -131 15 -148
l0 -29 -167 -1 c-191 -1 -297 -5 -365 -14 -58 -7 -46 -29 -158 284 -50 141
-80 239 -80 265 0 86 -31 390 -60 586 -43 292 -40 412 12 467 27 29 67 30 125
1z m-15657 -265 c34 -23 46 -39 80 -105 107 -205 167 -632 142 -996 -23 -332
-88 -583 -219 -842 -95 -188 -180 -307 -325 -452 -109 -109 -144 -137 -133
-105 19 55 90 983 115 1507 10 203 15 238 45 355 19 72 48 196 65 277 17 81
39 171 49 200 53 154 114 208 181 161z m7116 -2197 c65 -32 99 -59 190 -150
122 -122 189 -217 264 -371 185 -383 230 -875 119 -1310 -50 -198 -145 -411
-256 -580 -64 -97 -262 -311 -280 -303 -4 2 -79 39 -166 83 l-159 80 6 51 c3
28 26 134 50 235 109 452 146 683 153 959 9 350 -25 540 -173 960 -41 116 -47
146 -48 215 -1 134 38 178 155 172 53 -2 82 -10 145 -41z m13530 -1687 c49
-23 103 -69 257 -217 300 -289 527 -480 815 -684 475 -338 893 -550 1436 -729
149 -49 289 -100 312 -114 218 -128 47 -304 -381 -393 -200 -42 -263 -47 -540
-46 -259 0 -374 14 -591 69 -378 97 -791 337 -1094 636 -281 278 -464 596
-530 919 -23 110 -27 278 -9 362 16 76 58 155 99 189 66 56 123 58 226 8z
m-36976 -5878 c402 -85 786 -293 1097 -595 406 -393 680 -945 775 -1561 30
-200 31 -508 0 -648 -45 -211 -132 -326 -237 -315 -137 16 -251 145 -435 488
-432 807 -738 1257 -1105 1625 -147 148 -272 258 -500 440 -104 84 -209 173
-232 198 -102 111 -117 221 -41 294 49 46 117 75 213 90 17 3 32 7 34 9 2 2
76 2 165 1 119 -3 188 -9 266 -26z m17086 -286 c147 -112 283 -437 329 -784
29 -217 15 -517 -35 -727 -73 -314 -198 -544 -409 -755 -164 -164 -333 -270
-531 -335 -72 -24 -102 -28 -200 -28 -94 -1 -122 2 -154 18 -54 27 -78 69 -73
127 5 57 25 97 112 219 205 290 416 712 550 1103 116 337 164 563 185 877 11
174 29 241 76 288 31 31 39 34 75 29 22 -3 56 -17 75 -32z"/>
<path d="M31601 36565 c0 -5 11 -30 25 -55 14 -25 23 -37 20 -27 -3 10 -6 24
-6 30 0 7 -9 23 -20 37 -11 14 -19 21 -19 15z"/>
<path d="M50634 36483 c268 -536 398 -1053 413 -1648 19 -761 -154 -1502 -527
-2260 -782 -1589 -2286 -2853 -4200 -3531 -74 -26 -136 -48 -138 -50 -1 -1 36
-73 84 -160 831 -1526 1386 -3312 1573 -5069 41 -384 52 -574 58 -985 6 -422
-3 -678 -33 -1010 -68 -762 -232 -1543 -475 -2274 -33 -98 -58 -181 -55 -183
2 -3 69 -42 148 -87 l143 -83 28 86 c400 1242 551 2568 441 3861 -128 1503
-513 2998 -1135 4408 -124 280 -417 872 -431 872 -6 0 -8 3 -5 7 4 3 1 16 -7
28 -8 13 -31 53 -52 91 -20 38 -43 80 -50 94 -13 23 -12 26 14 34 80 26 298
106 447 166 1260 503 2355 1287 3121 2235 1065 1318 1499 2872 1179 4219 -76
322 -251 762 -414 1041 -34 57 -61 107 -61 111 0 9 -100 174 -106 174 -2 0 16
-39 40 -87z"/>
<path d="M49884 16930 c8 -19 37 -87 64 -151 129 -298 217 -634 269 -1024 25
-190 25 -822 0 -1055 -136 -1248 -566 -2282 -1330 -3200 -155 -186 -521 -551
-707 -707 -1010 -841 -2263 -1365 -3690 -1542 -1058 -132 -2267 -63 -3364 190
-1617 373 -3155 1155 -4521 2296 -383 320 -944 860 -1269 1223 -82 91 -154
164 -160 164 -6 -1 -65 -42 -131 -91 -240 -180 -573 -398 -847 -554 -152 -87
-526 -280 -618 -318 -30 -13 -77 -34 -105 -47 -157 -72 -244 -106 -500 -195
-93 -33 -173 -63 -176 -67 -3 -4 -11 -61 -18 -127 -18 -176 -57 -453 -96 -680
-315 -1836 -1031 -3458 -2128 -4818 -397 -492 -921 -1018 -1412 -1418 -633
-516 -1355 -959 -2102 -1290 -1394 -619 -2930 -864 -4318 -689 -658 83 -1297
276 -1860 562 -698 355 -1314 873 -1796 1511 -49 65 -89 115 -89 113 0 -11
207 -328 276 -422 354 -487 801 -922 1282 -1248 111 -75 339 -216 349 -216 3
0 17 -8 31 -19 35 -24 298 -156 432 -216 546 -245 1153 -399 1850 -471 239
-25 877 -30 1160 -10 792 56 1498 203 2285 476 66 23 134 48 150 55 17 7 107
43 200 80 1061 422 2064 1072 2944 1906 194 184 308 301 532 549 329 363 766
949 1019 1365 245 402 469 826 624 1180 32 72 65 148 75 170 105 231 275 697
376 1030 15 50 31 101 36 115 12 38 46 156 68 240 11 41 29 108 39 148 11 39
18 72 16 72 -3 0 0 8 5 18 5 9 11 31 15 47 3 17 12 57 20 91 8 34 17 72 20 85
2 13 16 74 30 134 61 267 143 764 186 1129 11 93 21 170 23 172 2 2 76 28 165
59 370 125 787 314 1187 535 314 174 773 478 989 654 l48 40 47 -51 c25 -29
78 -87 116 -129 148 -165 198 -217 460 -479 280 -281 539 -523 695 -651 19
-16 37 -31 40 -35 5 -5 234 -194 270 -223 8 -6 35 -27 60 -46 25 -19 47 -37
50 -40 8 -9 106 -84 130 -100 12 -8 28 -20 34 -26 7 -6 59 -46 116 -87 58 -42
110 -80 115 -85 44 -34 478 -328 545 -369 19 -11 73 -44 120 -73 95 -59 277
-167 330 -197 118 -66 152 -85 210 -118 189 -104 545 -277 855 -415 124 -55
194 -84 450 -183 365 -142 973 -323 1380 -411 721 -157 1310 -224 2048 -233
671 -9 1133 27 1707 132 1863 341 3406 1311 4333 2725 525 801 832 1706 929
2735 20 214 17 753 -5 935 -59 478 -186 910 -370 1263 -89 170 -111 211 -117
217 -3 3 -16 26 -29 52 -14 25 -33 57 -43 70 -19 23 -19 23 -4 -12z"/>
<path d="M1761 15405 c24 -38 63 -98 86 -133 24 -34 43 -65 43 -68 0 -11 190
-272 297 -409 248 -314 505 -599 1074 -1186 626 -646 811 -844 1108 -1189 272
-316 590 -720 776 -985 27 -38 52 -72 55 -75 3 -3 37 -51 74 -107 63 -94 92
-130 67 -85 -25 45 -339 514 -431 642 -490 684 -913 1175 -1801 2090 -727 749
-971 1021 -1251 1395 -141 188 -155 204 -97 110z"/>
<path d="M17314 13995 c8 -29 53 -426 68 -595 20 -227 17 -970 -5 -1190 -47
-467 -114 -801 -252 -1264 -28 -93 -33 -108 -135 -368 -230 -586 -601 -1149
-1060 -1608 -259 -260 -492 -444 -905 -719 -1206 -803 -2337 -1253 -3455
-1377 -314 -34 -831 -29 -1150 12 -1591 203 -3019 1192 -4235 2934 -100 143
-141 198 -120 160 32 -56 339 -514 433 -645 1159 -1614 2499 -2559 3973 -2800
247 -40 416 -56 684 -62 599 -14 1179 73 1820 272 175 55 477 163 587 211 42
19 79 34 81 34 3 0 38 15 79 33 40 19 102 47 138 63 190 85 595 294 738 380
40 24 74 44 76 44 7 0 287 170 365 221 41 27 75 49 77 49 5 0 297 197 371 251
33 24 71 51 83 59 80 55 255 194 345 273 78 69 344 332 421 417 459 504 831
1178 1040 1887 249 845 307 1791 174 2812 -12 84 -19 155 -18 157 2 1 48 -31
103 -72 499 -375 1094 -660 1750 -839 247 -67 209 -73 307 52 98 125 132 173
127 178 -2 1 -80 17 -173 34 -405 76 -898 220 -1186 348 -344 153 -566 271
-810 430 -126 83 -320 221 -333 238 -5 5 -6 1 -3 -10z"/>
<path d="M5380 11090 c6 -11 13 -20 16 -20 2 0 0 9 -6 20 -6 11 -13 20 -16 20
-2 0 0 -9 6 -20z"/>
</g>
</svg>
